<svg id="visual" viewBox="0 0 1950 200" width="1950" height="200" xmlns="http://www.w3.org/2000/svg" xmlns:xlink="http://www.w3.org/1999/xlink" version="1.1"><rect x="0" y="0" width="2000" height="1000" fill="#c09a27"></rect><path d="M0 57L20.8 63.5C41.7 70 83.3 83 125 91.8C166.7 100.7 208.3 105.3 250 100.5C291.7 95.7 333.3 81.3 375 78.3C416.7 75.3 458.3 83.7 500 81.2C541.7 78.7 583.3 65.3 625 57C666.7 48.7 708.3 45.3 750 55.7C791.7 66 833.3 90 875 108C916.7 126 958.3 138 1000 136C1041.7 134 1083.3 118 1125 101C1166.7 84 1208.3 66 1250 69.7C1291.7 73.3 1333.3 98.7 1375 107.7C1416.7 116.7 1458.3 109.3 1500 96.8C1541.7 84.3 1583.3 66.7 1625 73.2C1666.7 79.7 1708.3 110.3 1750 116.7C1791.7 123 1833.3 105 1875 90.3C1916.7 75.7 1958.3 64.3 1979.2 58.7L2000 53L2000 201L1979.2 201C1958.3 201 1916.7 201 1875 201C1833.3 201 1791.7 201 1750 201C1708.3 201 1666.7 201 1625 201C1583.3 201 1541.7 201 1500 201C1458.3 201 1416.7 201 1375 201C1333.3 201 1291.7 201 1250 201C1208.3 201 1166.7 201 1125 201C1083.3 201 1041.7 201 1000 201C958.3 201 916.7 201 875 201C833.3 201 791.7 201 750 201C708.3 201 666.7 201 625 201C583.3 201 541.7 201 500 201C458.3 201 416.7 201 375 201C333.3 201 291.7 201 250 201C208.3 201 166.7 201 125 201C83.3 201 41.7 201 20.8 201L0 201Z" fill="#1f1f1f"></path></svg>