<?xml version="1.0"?>
<svg width="2000" height="1000" xmlns="http://www.w3.org/2000/svg" xmlns:svg="http://www.w3.org/2000/svg" version="1.1">
 <g class="layer">
  <title>Layer 1</title>
  <rect fill="#1f1f1f" height="1000" id="svg_1" width="2000" x="0" y="0"/>
  <path d="m0,968.58l17.5,-1.15c17.5,-1.15 52.5,-3.44 87.7,-1.96c35.1,1.47 70.5,6.71 105.6,9.76c35.2,3.08 70.2,3.93 105.2,-0.36c35,-4.32 70,-13.82 105,-13.65c35,0.16 70,9.99 105.2,9.82c35.1,-0.16 70.5,-10.31 105.6,-10.9c35.2,-0.62 70.2,8.35 105.2,12.64c35,4.32 70,3.99 105,1.54c35,-2.46 70,-7.04 105.2,-6.71c35.1,0.33 70.4,0.57 105.6,6.88c35.2,6.31 70.2,-1.31 105.2,-1.96c35,-0.65 70,0.65 105,-1.41c35,-2.1 70,-7.53 105.2,-6.68c35.1,0.88 70.5,8.09 105.6,8.81c35.2,0.69 70.2,-5.08 105.2,-3.9c35,1.21 70,9.4 105,12.57c35,3.14 59.1,-10.69 103.2,-10.23c44.1,0.46 72.5,7.28 107.6,5.51c35.2,-1.74 70.2,-4.03 87.7,-5.17l17.5,-1.15l0,30.12l-17.5,0c-17.5,0 -52.5,0 -87.7,0c-35.1,0 -70.5,0 -105.6,0c-35.2,0 -70.2,0 -105.2,0c-35,0 -70,0 -105,0c-35,0 -70,0 -105.2,0c-35.1,0 -70.5,0 -105.6,0c-35.2,0 -70.2,0 -105.2,0c-35,0 -70,0 -105,0c-35,0 -70,0 -105.2,0c-35.1,0 -70.5,0 -105.6,0c-35.2,0 -70.2,0 -105.2,0c-35,0 -70,0 -105,0c-35,0 -70,0 -105.2,0c-35.1,0 -70.5,0 -105.6,0c-35.2,0 -70.2,0 -105.2,0c-35,0 -70,0 -105,0c-35,0 -70,0 -105.2,0c-35.1,0 -70.5,0 -105.6,0c-35.2,0 -70.2,0 -87.7,0l-17.5,0l0,-32.42z" fill="#c09a27" id="svg_2" transform="matrix(1 0 0 1 0 0)"/>
 </g>
</svg>