<svg id="visual" viewBox="0 0 2000 1000" width="2000" height="1000" xmlns="http://www.w3.org/2000/svg" xmlns:xlink="http://www.w3.org/1999/xlink" version="1.1"><rect x="0" y="0" width="2000" height="1000" fill="#1f1f1f"></rect><path d="M0 902L17.5 898.5C35 895 70 888 105.2 892.5C140.3 897 175.7 913 210.8 922.3C246 931.7 281 934.3 316 921.2C351 908 386 879 421 879.5C456 880 491 910 526.2 909.5C561.3 909 596.7 878 631.8 876.2C667 874.3 702 901.7 737 914.8C772 928 807 927 842 919.5C877 912 912 898 947.2 899C982.3 900 1017.7 916 1052.8 920C1088 924 1123 916 1158 914C1193 912 1228 916 1263 909.7C1298 903.3 1333 886.7 1368.2 889.3C1403.3 892 1438.7 914 1473.8 916.2C1509 918.3 1544 900.7 1579 904.3C1614 908 1649 933 1684 942.7C1719 952.3 1754 946.7 1789.2 942C1824.3 937.3 1859.7 933.7 1894.8 928.3C1930 923 1965 916 1982.5 912.5L2000 909L2000 1001L1982.5 1001C1965 1001 1930 1001 1894.8 1001C1859.7 1001 1824.3 1001 1789.2 1001C1754 1001 1719 1001 1684 1001C1649 1001 1614 1001 1579 1001C1544 1001 1509 1001 1473.8 1001C1438.7 1001 1403.3 1001 1368.2 1001C1333 1001 1298 1001 1263 1001C1228 1001 1193 1001 1158 1001C1123 1001 1088 1001 1052.8 1001C1017.7 1001 982.3 1001 947.2 1001C912 1001 877 1001 842 1001C807 1001 772 1001 737 1001C702 1001 667 1001 631.8 1001C596.7 1001 561.3 1001 526.2 1001C491 1001 456 1001 421 1001C386 1001 351 1001 316 1001C281 1001 246 1001 210.8 1001C175.7 1001 140.3 1001 105.2 1001C70 1001 35 1001 17.5 1001L0 1001Z" fill="#c09a27"></path></svg>